HIERARCHY
ROOT Hips
{
	OFFSET 0.00000 0.00000 0.00000
	CHANNELS 6 Xposition Yposition Zposition Zrotation Yrotation Xrotation 
	JOINT LHipJoint
	{
		OFFSET 0 0 0
		CHANNELS 3 Zrotation Yrotation Xrotation
		JOINT LeftHip
		{
			OFFSET 1.81638 -1.86202 0.89635
			CHANNELS 3 Zrotation Yrotation Xrotation
			JOINT LeftKnee
			{
				OFFSET 2.63464 -7.23861 0.00000
				CHANNELS 3 Zrotation Yrotation Xrotation
				JOINT LeftAnkle
				{
					OFFSET 2.45871 -6.75336 0.00000
					CHANNELS 3 Zrotation Yrotation Xrotation
					JOINT LeftToe
					{
						OFFSET 0.34235 -0.94059 2.20020
						CHANNELS 3 Zrotation Yrotation Xrotation
						End Site
						{
							OFFSET 0.00000 -0.00000 1.18611
						}
					}
				}
			}
		}
	}
	JOINT RHipJoint
	{
		OFFSET 0 0 0
		CHANNELS 3 Zrotation Yrotation Xrotation
		JOINT RightHip
		{
			OFFSET -1.84405 -1.86203 0.89635
			CHANNELS 3 Zrotation Yrotation Xrotation
			JOINT RightKnee
			{
				OFFSET -2.71067 -7.44751 0.00000
				CHANNELS 3 Zrotation Yrotation Xrotation
				JOINT RightAnkle
				{
					OFFSET -2.47159 -6.79060 0.00000
					CHANNELS 3 Zrotation Yrotation Xrotation
					JOINT RightToe
					{
						OFFSET -0.26223 -0.72048 2.36007
						CHANNELS 3 Zrotation Yrotation Xrotation
						End Site
						{
							OFFSET -0.00000 -0.00000 1.23343
						}
					}
				}
			}
		}
	}
	JOINT lowerback
	{
		OFFSET 0 0 0
		CHANNELS 3 Zrotation Yrotation Xrotation
		JOINT Chest
		{
			OFFSET 0.02089 1.99248 -0.22512
			CHANNELS 3 Zrotation Yrotation Xrotation
			JOINT Chest2
			{
				OFFSET 0.01476 2.01356 -0.03079
				CHANNELS 3 Zrotation Yrotation Xrotation
				JOINT lowerneck
				{
					OFFSET 0 0 0
					CHANNELS 3 Zrotation Yrotation Xrotation
					JOINT Neck
					{
						OFFSET 0.04846 1.65098 0.06663
						CHANNELS 3 Zrotation Yrotation Xrotation
						JOINT Head
						{
							OFFSET -0.06061 1.60634 -0.07565
							CHANNELS 3 Zrotation Yrotation Xrotation
							End Site
							{
								OFFSET -0.02954 1.73562 -0.03642
							}
						}
					}
				}
				JOINT LeftCollar
				{
					OFFSET 0 0 0
					CHANNELS 3 Zrotation Yrotation Xrotation
					JOINT LeftShoulder
					{
						OFFSET 3.45234 1.47051 -0.06993
CHANNELS 3 Zrotation Xrotation Yrotation
						JOINT LeftElbow
						{
OFFSET 0 -5.493130 0.000000
CHANNELS 3 Zrotation Xrotation Yrotation
							JOINT LeftWrist
							{
OFFSET 0 -3.290370 0.000000
CHANNELS 3 Zrotation Xrotation Yrotation
								JOINT lhand
								{
									OFFSET 0 0 0
CHANNELS 3 Zrotation Xrotation Yrotation
									JOINT LFingers
									{
OFFSET 0 -0.729660 0.000000
CHANNELS 3 Zrotation Xrotation Yrotation
										End Site
										{
OFFSET 0 -0.588270 0.000000
										}
									}
								}
								JOINT LThumb
								{
OFFSET 0 0.000000 0.000000
CHANNELS 3 Zrotation Xrotation Yrotation
									End Site
									{
OFFSET 0 -0.597250 0.597250
									}
								}
							}
						}
					}
				}
				JOINT RightCollar
				{
					OFFSET 0 0 0
					CHANNELS 3 Zrotation Yrotation Xrotation
					JOINT RightShoulder
					{
						OFFSET -3.41935 1.44327 0.20453
CHANNELS 3 Zrotation Xrotation Yrotation
						JOINT RightElbow
						{
OFFSET 0 -5.236840 0.000000
CHANNELS 3 Zrotation Xrotation Yrotation
							JOINT RightWrist
							{
OFFSET 0 -3.382510 0.000000
CHANNELS 3 Zrotation Xrotation Yrotation
								JOINT rhand
								{
									OFFSET 0 0 0
CHANNELS 3 Zrotation Xrotation Yrotation
									JOINT RFingers
									{
OFFSET 0 -0.691450 0.000000
CHANNELS 3 Zrotation Xrotation Yrotation
										End Site
										{
OFFSET 0 -0.557470 0.000000
										}
									}
								}
								JOINT RThumb
								{
OFFSET 0 0.000000 0.000000
CHANNELS 3 Zrotation Xrotation Yrotation
									End Site
									{
OFFSET 0 -0.565980 0.565980
									}
								}
							}
						}
					}
				}
			}
		}
	}
}
MOTION
Frames: 6
Frame Time: .0083333
-32.2827 17.4171 -2.6658 -25.1174 78.0739 -20.4047 0.0000 0.0000 0.0000 -9.3495 -8.9173 -21.9140 4.9607 13.3395 40.6528 1.1751 -15.8467 -20.8928 0.1743 -2.6895 -7.4153 0.0000 0.0000 0.0000 26.7339 10.0532 5.6987 -0.9225 -6.1193 17.1310 -1.2447 9.3089 -20.0388 -0.0239 -0.9976 2.7423 0.4379 -1.0400 15.5308 2.9960 -0.8577 7.2782 3.0276 -0.3136 -0.9514 -0.9853 5.4332 -2.8199 -4.8472 7.1474 -11.6368 -1.5323 3.8737 -3.0939 -0.0000 0.0000 0.0000 1.782 18.4989 -32.4062 32.1176 -42.6407 12.8204 -1.8666 -7.8219 -18.1561 0.0 0.0 0.0 -7.1250 0.0 0.0 -27.8590 46.073 0.7999 -0.0000 0.0000 0.0000 -20.6653 11.7932 52.9113 -23.4645 -34.5928 -7.4003 -6.3389 2.9327 15.33 0.0 0.0 0.0 7.1250 0.0 -0.0 19.5375 44.4717 0.2653
-32.2840 17.4177 -2.6651 -25.0246 78.1041 -20.3227 0.0000 0.0000 0.0000 -9.3822 -8.9508 -21.9022 4.9593 13.3378 40.6464 1.1702 -15.8231 -20.8514 0.1718 -2.6703 -7.3621 0.0000 0.0000 0.0000 26.7335 10.1012 5.6893 -0.9286 -6.1389 17.1881 -1.2557 9.1951 -20.1144 -0.0197 -0.9063 2.4911 0.3932 -1.0542 15.5307 2.9998 -0.8830 7.2649 3.0611 -0.3275 -0.9633 -0.9207 5.2349 -2.5593 -4.8599 6.8688 -12.1255 -1.5712 3.7473 -3.3143 -0.0000 0.0000 0.0000 1.7065 18.5321 -32.2172 32.2213 -42.7229 12.8907 -1.0187 -7.4264 -14.0194 0.0 0.0 0.0 -7.1250 0.0 0.0 -25.3571 42.4665 -1.7058 -0.0000 0.0000 0.0000 -20.7118 11.7652 52.9442 -23.5077 -34.6394 -7.4249 -6.2159 2.8478 15.2248 0.0 0.0 0.0 7.1250 0.0 -0.0 19.6079 44.3585 0.3234
-32.2849 17.4177 -2.6667 -25.1666 78.1141 -20.4980 0.0000 0.0000 0.0000 -9.3730 -8.9486 -21.8620 4.9570 13.3352 40.6364 1.1703 -15.8151 -20.8493 0.1765 -2.7063 -7.4622 0.0000 0.0000 0.0000 26.7661 10.0674 5.6777 -0.9377 -6.1678 17.2721 -1.2656 9.1781 -20.1910 -0.0193 -0.8960 2.4628 0.4775 -1.1024 15.7157 2.9630 -0.9327 7.1524 2.9872 -0.3497 -1.1797 -0.8844 5.2993 -2.5287 -4.8512 6.9541 -11.9597 -1.5709 3.7825 -3.2594 -0.0000 0.0000 0.0000 1.6933 18.7083 -32.0268 32.3197 -42.8006 12.9575 -1.1288 -7.432 -13.9251 0.0 0.0 0.0 -7.1250 0.0 0.0 -25.4126 42.3699 -1.7756 -0.0000 0.0000 0.0000 -20.7057 11.8353 53.1151 -23.5101 -34.6419 -7.4262 -6.1432 2.7431 15.1532 0.0 0.0 0.0 7.1250 0.0 -0.0 19.6461 44.2827 0.3624
-32.2853 17.4179 -2.6648 -25.0111 78.1256 -20.3535 0.0000 0.0000 0.0000 -9.4043 -8.9742 -21.8374 4.9524 13.3300 40.6168 1.1658 -15.7832 -20.8082 0.1765 -2.7064 -7.4624 0.0000 0.0000 0.0000 26.7856 10.2180 5.7051 -0.9466 -6.1963 17.3551 -1.2819 8.9789 -20.3021 -0.0166 -0.8324 2.2876 0.4238 -1.0852 15.7023 2.9475 -0.9197 7.1374 2.9990 -0.3446 -1.1884 -1.1956 5.5193 -2.8836 -4.7405 7.2735 -11.3578 -1.4522 3.9325 -2.9959 0.0000 -0.0000 0.0000 1.7214 18.7472 -31.9998 32.4176 -42.8776 13.0241 -1.2078 -7.458 -13.8525 0.0 0.0 0.0 -7.1250 0.0 0.0 -25.4504 42.2962 -1.8287 0.0000 -0.0000 0.0000 -20.6966 11.8963 53.0909 -23.6119 -34.7511 -7.4842 -6.0564 2.6688 15.1219 0.0 0.0 0.0 7.1250 0.0 -0.0 19.7110 44.2435 0.3836
-32.2850 17.4219 -2.6634 -25.0768 78.1246 -20.4521 0.0000 0.0000 0.0000 -9.3959 -8.9205 -21.8037 4.9477 13.3247 40.5963 1.1596 -15.7978 -20.7697 0.1730 -2.6794 -7.3875 0.0000 0.0000 0.0000 26.8474 10.2589 5.6778 -0.9552 -6.2237 17.4348 -1.2919 8.7983 -20.3674 -0.0120 -0.7071 1.9433 0.4275 -1.0744 15.6570 2.9508 -0.9055 7.1641 2.9969 -0.3375 -1.1370 -0.8214 5.4854 -2.6181 -4.9492 7.1999 -11.5236 -1.5970 3.8928 -3.0807 -0.0000 0.0000 0.0000 1.7514 18.7135 -32.0596 32.4477 -42.9012 13.0446 -1.6104 -7.6379 -15.3777 0.0 0.0 0.0 -7.1250 0.0 0.0 -26.4012 43.6264 -0.9671 -0.0000 0.0000 0.0000 -20.6807 11.8355 53.0947 -23.5980 -34.7363 -7.4763 -5.85 2.4475 15.039 0.0 0.0 0.0 7.1250 0.0 -0.0 19.8619 44.1421 0.4387
-32.2853 17.4234 -2.6624 -25.0902 78.1357 -20.4889 0.0000 0.0000 0.0000 -9.4005 -8.9084 -21.7739 4.9423 13.3185 40.5729 1.1527 -15.7934 -20.7206 0.1707 -2.6617 -7.3382 0.0000 0.0000 0.0000 26.8884 10.3235 5.6725 -0.9646 -6.2533 17.5213 -1.3052 8.6496 -20.4612 -0.0097 -0.6350 1.7449 0.4275 -1.0748 15.6621 2.9416 -0.9067 7.1506 2.9876 -0.3381 -1.1541 -0.7973 5.5272 -2.6119 -4.9721 7.2540 -11.4190 -1.6055 3.9164 -3.0429 0.0000 -0.0000 0.0000 1.7697 18.7417 -32.0489 32.5062 -42.947 13.0844 -1.6281 -7.6543 -15.1143 0.0 0.0 0.0 -7.1250 0.0 0.0 -26.3066 43.3881 -1.1307 0.0000 -0.0000 0.0000 -20.6716 11.8462 53.118 -23.6269 -34.7672 -7.4927 -5.7013 2.3178 14.966 0.0 0.0 0.0 7.1250 0.0 -0.0 19.9657 44.0569 0.485
